<?xml version="1.0" standalone="no"?><svg xmlns="http://www.w3.org/2000/svg" viewBox="0 0 1440 320"><path fill="#0099ff" fill-opacity="1" d="M0,192L14.1,170.7C28.2,149,56,107,85,90.7C112.9,75,141,85,169,128C197.6,171,226,245,254,240C282.4,235,311,149,339,101.3C367.1,53,395,43,424,42.7C451.8,43,480,53,508,48C536.5,43,565,21,593,16C621.2,11,649,21,678,69.3C705.9,117,734,203,762,218.7C790.6,235,819,181,847,160C875.3,139,904,149,932,165.3C960,181,988,203,1016,197.3C1044.7,192,1073,160,1101,144C1129.4,128,1158,128,1186,154.7C1214.1,181,1242,235,1271,234.7C1298.8,235,1327,181,1355,181.3C1383.5,181,1412,235,1426,261.3L1440,288L1440,0L1425.9,0C1411.8,0,1384,0,1355,0C1327.1,0,1299,0,1271,0C1242.4,0,1214,0,1186,0C1157.6,0,1129,0,1101,0C1072.9,0,1045,0,1016,0C988.2,0,960,0,932,0C903.5,0,875,0,847,0C818.8,0,791,0,762,0C734.1,0,706,0,678,0C649.4,0,621,0,593,0C564.7,0,536,0,508,0C480,0,452,0,424,0C395.3,0,367,0,339,0C310.6,0,282,0,254,0C225.9,0,198,0,169,0C141.2,0,113,0,85,0C56.5,0,28,0,14,0L0,0Z"></path></svg>